<?xml version="1.0" encoding="utf-8"?>
<!-- Generator: Adobe Illustrator 19.2.1, SVG Export Plug-In . SVG Version: 6.00 Build 0)  -->
<svg version="1.1" id="layer" xmlns="http://www.w3.org/2000/svg" xmlns:xlink="http://www.w3.org/1999/xlink" x="0px" y="0px"
	 viewBox="140 170 352 352">
<style type="text/css">
	.st0{fill:#A1662C;}
	.st1{fill:#512C1D;}
</style>
<g>
	<g>
		<path class="st0" d="M399.1,270.4v6.3h9.7l-17.7,39.6c0.1,0-17.4-39.6-17.4-39.6h9.3v-6.3h-25.2v6.3h8.2l21.9,47.2l-3,6.3
			c-4.8,9.9-8.6,16.6-11.7,20.1c1.5,1.6,2.7,3.4,3.9,5.2c4.6-6.9,8.8-14.1,11.2-18.9l27.8-59.7h8.2v-6.3h-25L399.1,270.4
			L399.1,270.4z"/>
		<path class="st0" d="M96.2,321.6c-1.9-1.9-3.1-4.2-3.1-6.9c0-3,2-5.6,5-5.6c3.4,0,5.3,2.3,5.3,5c0,1.4-0.4,2.6-1.2,3.9
			c1.6,1.8,6.8,3.9,13.7,3.9c8.8,0,15.5-3.9,15.5-9.9c0-6.1-6.7-8.3-14.4-10.1c-12.8-3.1-22.3-6.1-22.3-16.7
			c0-8.4,8.4-15.5,20.8-15.5c8,0,14,2.3,17.3,5.6c1.9,1.9,2.9,3.9,2.9,6.3c0,3.3-2,5.4-4.9,5.4c-3,0-5.4-2.2-5.4-5.3
			c0-1.1,0.3-2.3,1-3.5c-1.6-1.4-5.9-2.4-10.9-2.4c-8.7,0-13.7,4.8-13.7,9.4c0,5.6,6,7.3,15.6,9.8c10.3,2.6,21,5.7,21,17
			c0,10.1-10.2,16.3-22.2,16.3C108,328,100.1,325.5,96.2,321.6z"/>
		<path class="st0" d="M144.3,321h10.1v-44.4h-10.1v-6.3h16.9v50.5h10.2v6.3h-27.1V321z M150.2,258.3c0-3.5,2.9-6.5,6.4-6.5
			c3.4,0,6.3,3,6.3,6.5c0,3.5-2.9,6.5-6.3,6.5C153,264.8,150.2,261.8,150.2,258.3z"/>
		<path class="st0" d="M175.3,321h9.5v-44.4h-9.5v-6.3h16.1v11.2c5.2-6.8,13.2-12.2,21.4-12.2c10.1,0,14.7,4.8,16.2,12
			c6.5-6.9,14.3-12,21.8-12c13.2,0,17,8,17,19.3v32.2h9.5v6.3h-25.9v-6.3h9.5v-31.3c0-9.7-3.1-13.7-11.2-13.7
			c-7.8,0-13.7,4.8-19.9,11.3v33.7h9.4v6.3h-25.9v-6.3h9.7v-31.3c0-9.7-3.1-13.7-11.2-13.7c-8.2,0-14.4,5.3-20,11.6v33.5h9.5v6.3
			h-25.9V321H175.3z"/>
		<path class="st0" d="M287.2,347.4v-70.7h-9.5v-6.3h16.1v8.8c5-6,11.2-9.9,20.1-9.9c15,0,27.3,11.4,27.3,29.1
			c0,15.9-10.7,29.9-28.7,29.9c-6.9,0-13.6-2.7-18.5-7.1v26.3 M333.8,298.6c0.1-13.5-8.6-23-20.4-23c-8.3,0-14.4,4.1-19.5,9.7v29.9
			c4.6,4.1,10.3,7.1,18.8,7.1C325.5,322,333.7,311.6,333.8,298.6z"/>
		<path class="st0" d="M336.7,321h10.1v-86.5h-10.1v-6.3h16.9v92.7h10.1v6.3h-27.1V321C336.6,321,336.7,321,336.7,321z"/>
		<path class="st1" d="M58.5,412.6c-22,0-38.4-17-38.4-38.5v-0.3c0-21.2,16.1-38.8,39-38.8c14.1,0,22.6,4.8,29.5,11.6l-10.5,12.1
			c-5.7-5.3-11.7-8.4-19.2-8.4c-12.7,0-21.8,10.5-21.8,23.3v0.3c0,12.8,8.8,23.5,21.8,23.5c8.6,0,13.7-3.4,19.7-8.7l10.5,10.6
			C81.5,407.6,72.9,412.6,58.5,412.6z"/>
		<path class="st1" d="M140.2,412.6v-30.1h-30.3v30.1H93.4v-74.8h16.5v29.7h30.3v-29.7h16.5v74.8H140.2z"/>
		<path class="st1" d="M282.7,412.6c-22,0-38.4-17-38.4-38.5v-0.3c0-21.2,16.1-38.8,39-38.8c14.1,0,22.6,4.8,29.5,11.6l-10.5,12.1
			c-5.7-5.3-11.7-8.4-19.2-8.4c-12.7,0-21.8,10.5-21.8,23.3v0.3c0,12.8,8.8,23.5,21.8,23.5c8.6,0,13.7-3.4,19.7-8.7l10.5,10.6
			C305.7,407.6,297.1,412.6,282.7,412.6z"/>
		<path class="st1" d="M389.5,412.6v-74.8H406v59.9h17.3v15H389.5z"/>
		<path class="st1" d="M488.8,412.6l-6.8-16.7h-31.7l-6.8,16.7h-16.7l32.1-75.4h15.2l32.1,75.4H488.8z M466.2,357.1l-9.9,24.2h19.9
			L466.2,357.1z"/>
		<path class="st1" d="M528.8,353v59.7h-16.5V353h-22.7v-15.2h62V353C551.7,353,528.8,353,528.8,353z"/>
		<path class="st1" d="M556.4,412.6v-74.8h51.2v14.7h-34.8v15.2H608v14.7h-35.2v15.8h35.4v14.7h-51.7V412.6z"/>
		<path class="st1" d="M201.7,333.8c-21.8,0-39.5,17.7-39.5,39.5s17.7,39.5,39.5,39.5s39.5-17.7,39.5-39.5
			C241.2,351.4,223.5,333.8,201.7,333.8z M201.7,397.9c-13.6,0-24.6-11-24.6-24.6s11-24.6,24.6-24.6s24.6,11,24.6,24.6
			C226.5,386.9,215.5,397.9,201.7,397.9z"/>
		<path class="st1" d="M376.8,355.3L376.8,355.3c-0.8,1.1-1.6,1.9-1.6,1.9c-9.8,12.5-23.1,17.3-23.1,17.3
			c-10.6,4.2-19.2,1.2-19.2,1.2c-8.4-2.3-9.4-9-9.4-9c-1.4-7.1,4.9-13.3,4.9-13.3c5.9-5.7,12.8-4.1,12.8-4.1
			c3.9,0.7,4.8,4.6,4.8,4.6c0.5,3.7-2.3,6.3-2.3,6.3c-2.6,2.4-5.7,2.2-5.7,2.2c7.6-4.4,5.4-7.9,5.4-7.9c-1.2-2.2-4.5-2.6-4.5-2.6
			c-6.1-0.7-10.5,6.9-10.5,6.9c-3.4,6.1,0.7,10.1,0.7,10.1c4.9,5.4,15.2,2.4,15.2,2.4c7.3-1.9,15.2-8.4,15.2-8.4s6-3.9,13.2-12.9
			l0,0c-6.5-7.3-16.2-12-26.8-12c-19.9,0-35.9,16.1-35.9,35.9s16.1,35.9,35.9,35.9c19.9,0,35.9-16.1,35.9-35.9
			C382.1,367.3,380.2,360.8,376.8,355.3z"/>
	</g>
	<g>
		<path class="st1" d="M610.7,342.5c0,0.1,0,0.3,0,0.4c0,0.1,0.1,0.3,0.1,0.3c0,0.1,0.1,0.1,0.3,0.1c0.1,0,0.3,0.1,0.4,0.1
			c0.1,0,0.4,0,0.5-0.1s0.3-0.3,0.3-0.5c0-0.1,0-0.3,0-0.4c0-0.1-0.1-0.1-0.1-0.3c-0.1-0.1-0.3-0.1-0.4-0.3
			c-0.1-0.1-0.3-0.1-0.5-0.3c-0.3-0.1-0.5-0.1-0.8-0.3c-0.3-0.1-0.4-0.3-0.5-0.4c-0.1-0.1-0.3-0.3-0.3-0.5c0-0.1-0.1-0.4-0.1-0.7
			c0-0.7,0.1-1.1,0.5-1.4c0.4-0.3,0.8-0.4,1.5-0.4c0.3,0,0.5,0,0.8,0.1c0.3,0,0.4,0.1,0.7,0.3c0.1,0.1,0.3,0.3,0.4,0.5
			c0.1,0.3,0.1,0.5,0.1,0.8v0.1h-1.2c0-0.3,0-0.5-0.1-0.7c-0.1-0.1-0.3-0.3-0.5-0.3c-0.1,0-0.3,0-0.4,0c-0.1,0-0.1,0.1-0.3,0.1
			c0,0.1-0.1,0.1-0.1,0.3c0,0.1,0,0.1,0,0.3s0,0.4,0.1,0.5s0.3,0.3,0.5,0.4l1,0.4c0.3,0.1,0.4,0.3,0.5,0.3c0.1,0.1,0.3,0.3,0.4,0.4
			c0.1,0.1,0.1,0.3,0.1,0.4c0,0.1,0,0.4,0,0.5c0,0.7-0.1,1.2-0.5,1.5s-1,0.4-1.6,0.4c-0.7,0-1.2-0.1-1.6-0.5
			c-0.3-0.3-0.4-0.8-0.4-1.4v-0.3h1.4V342.5L610.7,342.5z"/>
		<path class="st1" d="M616.3,337.9l1,4.5l0,0l1-4.5h1.9v6.4h-1.2v-5.2l0,0l-1.1,5.2h-1l-1.1-5.2l0,0v5.2h-1.2v-6.4H616.3z"/>
	</g>
</g>
</svg>
